FFmpeg version SVN-r25716, Copyright (c) 2000-2010 the FFmpeg developers  built on Nov 10 2010 12:23:18 with gcc 4.1.2 20080704 (Red Hat 4.1.2-48)  configuration: --enable-libmp3lame --enable-shared --disable-mmx --arch=x86_64  libavutil     50.33. 0 / 50.33. 0  libavcore      0.12. 1 /  0.12. 1  libavcodec    52.94. 4 / 52.94. 4  libavformat   52.84. 0 / 52.84. 0  libavdevice   52. 2. 2 / 52. 2. 2  libavfilter    1.59. 0 /  1.59. 0  libswscale     0.12. 0 /  0.12. 0Input #0, avi, from '/RAID10/data/converted_video_files/25307.avi':  Duration: 00:00:04.00, start: 0.000000, bitrate: 15331 kb/s    Stream #0.0: Video: msvideo1, rgb555le, 400x400, 11 tbr, 11 tbn, 11 tbc    Metadata:      title           : STK[buffer @ 0x903e930] w:400 h:400 pixfmt:rgb555le[ffsink @ 0x903eba0] auto-inserting filter 'auto-inserted scaler 0' between the filter 'src' and the filter 'out'[scale @ 0x903ee90] w:400 h:400 fmt:rgb555le -> w:400 h:400 fmt:yuv420p flags:0x4Output #0, flv, to '/RAID10/data/converted_video_files/25307.flv':  Metadata:    encoder         : Lavf52.84.0    Stream #0.0: Video: flv, yuv420p, 400x400, q=2-31, 600 kb/s, 1k tbn, 24 tbc    Metadata:      title           : STKStream mapping:  Stream #0.0 -> #0.0Press [q] to stop encodingframe=   28 fps=  0 q=7.7 size=     204kB time=2.50 bitrate= 669.0kbits/s    frame=   44 fps=  0 q=7.6 Lsize=     268kB time=3.96 bitrate= 555.3kbits/s    video:267kB audio:0kB global headers:0kB muxing overhead 0.333812%